<?xml version="1.0" encoding="iso-8859-1"?>
<!-- Generator: Adobe Illustrator 18.0.0, SVG Export Plug-In . SVG Version: 6.00 Build 0)  -->
<!DOCTYPE svg PUBLIC "-//W3C//DTD SVG 1.1//EN" "http://www.w3.org/Graphics/SVG/1.1/DTD/svg11.dtd">
<svg xmlns="http://www.w3.org/2000/svg" xmlns:xlink="http://www.w3.org/1999/xlink" version="1.1" id="Capa_1" x="0px" y="0px" viewBox="0 0 217.111 217.111" style="enable-background:new 0 0 217.111 217.111;" xml:space="preserve" width="512px" height="512px">
<g>
	<path d="M108.552,0c-46.13,0-83.66,37.536-83.66,83.674c0,32.967,13.802,66.314,39.913,96.438   c19.502,22.499,38.83,35.246,39.644,35.777c1.246,0.816,2.675,1.223,4.104,1.223s2.857-0.407,4.104-1.222   c0.813-0.532,20.144-13.279,39.647-35.778c26.114-30.123,39.917-63.471,39.917-96.438C192.22,37.536,154.687,0,108.552,0z    M108.545,200.407c-15.386-11.432-68.653-55.448-68.653-116.733C39.892,45.807,70.692,15,108.552,15   c37.863,0,68.668,30.807,68.668,68.674C177.22,144.816,123.926,188.948,108.545,200.407z" fill="#D80027"/>
	<path d="M113.86,50.077c-2.927-2.927-7.677-2.929-10.605,0L70.126,83.202c-2.93,2.929-2.93,7.678-0.001,10.606   c1.465,1.465,3.384,2.197,5.304,2.197c0.744,0,1.487-0.113,2.205-0.333v16.259c0,4.143,3.357,7.5,7.5,7.5h46.852   c4.143,0,7.5-3.357,7.5-7.5V95.675c2.566,0.784,5.472,0.165,7.503-1.866c2.929-2.929,2.929-7.678-0.001-10.606L113.86,50.077z    M92.634,104.432V81.909l15.924-15.922l15.928,15.927v22.518H92.634z" fill="#D80027"/>
</g>
<g>
</g>
<g>
</g>
<g>
</g>
<g>
</g>
<g>
</g>
<g>
</g>
<g>
</g>
<g>
</g>
<g>
</g>
<g>
</g>
<g>
</g>
<g>
</g>
<g>
</g>
<g>
</g>
<g>
</g>
</svg>
